HIERARCHY
ROOT Hips
{
	OFFSET 0.000000 0.000000 0.000000
	CHANNELS 6 Xposition Yposition Zposition Zrotation Yrotation Xrotation 
	JOINT LHipJoint
	{
		OFFSET 0.000000 0.000000 0.000000
		CHANNELS 3 Zrotation Yrotation Xrotation
		JOINT LeftUpLeg
		{
			OFFSET 1.363060 -1.794630 0.839290
			CHANNELS 3 Zrotation Yrotation Xrotation
			JOINT LeftLeg
			{
				OFFSET 2.448110 -6.726130 0.000000
				CHANNELS 3 Zrotation Yrotation Xrotation
				JOINT LeftFoot
				{
					OFFSET 2.562200 -7.039590 0.000000
					CHANNELS 3 Zrotation Yrotation Xrotation
					JOINT LeftToeBase
					{
						OFFSET 0.157640 -0.433110 2.322550
						CHANNELS 3 Zrotation Yrotation Xrotation
						End Site
						{
							OFFSET 0.000000 0.000000 0.000000
						}
					}
				}
			}
		}
	}
	JOINT RHipJoint
	{
		OFFSET 0.000000 0.000000 0.000000
		CHANNELS 3 Zrotation Yrotation Xrotation
		JOINT RightUpLeg
		{
			OFFSET -1.305520 -1.794630 0.839290
			CHANNELS 3 Zrotation Yrotation Xrotation
			JOINT RightLeg
			{
				OFFSET -2.542530 -6.985550 0.000000
				CHANNELS 3 Zrotation Yrotation Xrotation
				JOINT RightFoot
				{
					OFFSET -2.568260 -7.056230 0.000000
					CHANNELS 3 Zrotation Yrotation Xrotation
					JOINT RightToeBase
					{
						OFFSET -0.164730 -0.452590 2.363150
						CHANNELS 3 Zrotation Yrotation Xrotation
						End Site
						{
							OFFSET 0.000000 0.000000 0.000000
						}
					}
				}
			}
		}
	}
	JOINT LowerBack
	{
		OFFSET 0.000000 0.000000 0.000000
		CHANNELS 3 Zrotation Yrotation Xrotation
		JOINT Spine
		{
			OFFSET 0.028270 2.035590 -0.193380
			CHANNELS 3 Zrotation Yrotation Xrotation
			JOINT Spine1
			{
				OFFSET 0.056720 2.048850 -0.042750
				CHANNELS 3 Zrotation Yrotation Xrotation
				JOINT Neck
				{
					OFFSET 0.000000 0.000000 0.000000
					CHANNELS 3 Zrotation Yrotation Xrotation
					JOINT Neck1
					{
						OFFSET -0.054170 1.746240 0.172020
						CHANNELS 3 Zrotation Yrotation Xrotation
						JOINT Head
						{
							OFFSET 0.104070 1.761360 -0.123970
							CHANNELS 3 Zrotation Yrotation Xrotation
							End Site
							{
								OFFSET 0.000000 0.000000 0.000000
							}
						}
					}
				}
				JOINT LeftShoulder
				{
					OFFSET 0.000000 0.000000 0.000000
					CHANNELS 3 Zrotation Yrotation Xrotation
					JOINT LeftArm
					{
						OFFSET 3.362410 1.200890 -0.311210
						CHANNELS 3 Zrotation Yrotation Xrotation
						JOINT LeftForeArm
						{
							OFFSET 4.983000 -0.000000 -0.000000
							CHANNELS 3 Zrotation Yrotation Xrotation
							JOINT LeftHand
							{
								OFFSET 3.483560 -0.000000 -0.000000
								CHANNELS 3 Zrotation Yrotation Xrotation
								JOINT LeftFingerBase
								{
									OFFSET 0.000000 0.000000 0.000000
									CHANNELS 3 Zrotation Yrotation Xrotation
									JOINT LeftHandIndex1
									{
										OFFSET 0.715260 -0.000000 -0.000000
										CHANNELS 3 Zrotation Yrotation Xrotation
										End Site
										{
											OFFSET 0.000000 0.000000 0.000000
										}
									}
								}
								JOINT LThumb
								{
									OFFSET 0.000000 0.000000 0.000000
									CHANNELS 3 Zrotation Yrotation Xrotation
									End Site
									{
										OFFSET 0.000000 0.000000 0.000000
									}
								}
							}
						}
					}
				}
				JOINT RightShoulder
				{
					OFFSET 0.000000 0.000000 0.000000
					CHANNELS 3 Zrotation Yrotation Xrotation
					JOINT RightArm
					{
						OFFSET -3.136600 1.374050 -0.404650
						CHANNELS 3 Zrotation Yrotation Xrotation
						JOINT RightForeArm
						{
							OFFSET -5.241900 -0.000000 -0.000000
							CHANNELS 3 Zrotation Yrotation Xrotation
							JOINT RightHand
							{
								OFFSET -3.444170 -0.000000 -0.000000
								CHANNELS 3 Zrotation Yrotation Xrotation
								JOINT RightFingerBase
								{
									OFFSET 0.000000 0.000000 0.000000
									CHANNELS 3 Zrotation Yrotation Xrotation
									JOINT RightHandIndex1
									{
										OFFSET -0.622530 -0.000000 -0.000000
										CHANNELS 3 Zrotation Yrotation Xrotation
										End Site
										{
											OFFSET 0.000000 0.000000 0.000000
										}
									}
								}
								JOINT RThumb
								{
									OFFSET 0.000000 0.000000 0.000000
									CHANNELS 3 Zrotation Yrotation Xrotation
									End Site
									{
										OFFSET 0.000000 0.000000 0.000000
									}
								}
							}
						}
					}
				}
			}
		}
	}
}
MOTION
Frames: 12
Frame Time: 0.008333
8.556423 17.578078 -32.708649 3.800519 11.195662 7.524912 -5.689261 3.005293 8.476882 -12.669473 -3.351329 9.257924 -3.856745 1.856551 9.081729 1.825097 4.764927 31.338921 1.009595 6.372948 17.877171 2.575420 4.311803 -6.388971 6.824233 1.617518 -33.152071 3.460086 -9.187813 17.144657 -2.033272 -8.645216 32.993213 -0.120539 2.137292 -5.889543 -2.051270 -3.289156 2.558363 1.554725 -3.892501 -4.234498 2.718775 -3.065018 -2.886583 -4.739155 -1.024419 -9.470645 6.219354 -1.331903 9.999373 1.763082 -0.476818 5.429627 3.074429 -10.792843 0.318839 -76.465707 -20.255808 37.121956 34.573295 -36.782245 -16.939981 -1.026717 0.824133 -23.374606 30.915175 -16.117568 -10.381110 -7.125000 0.000000 0.000000 2.344916 9.842651 -1.911228 -3.366369 8.658289 1.086246 92.898049 -26.857082 -58.944826 -1.915713 5.252564 -1.137249 3.232765 -0.654066 61.869698 -18.251629 -30.739818 11.411116 7.125000 0.000000 0.000000 15.106232 -64.056596 -7.055098
8.562415 17.589162 -32.556689 3.612646 10.953124 7.520098 -5.767435 2.844944 8.395683 -12.527687 -3.117888 8.410462 -3.629849 2.651297 10.981299 1.722599 5.326471 32.001673 0.873171 5.597424 15.702531 2.614288 4.350299 -6.366603 6.992893 1.812216 -33.152671 3.391765 -9.381076 17.639446 -2.009123 -8.625763 33.092013 -0.064319 1.618902 -4.454006 -1.747079 -3.218556 2.500533 1.558952 -3.798456 -4.225954 2.643659 -3.008683 -2.805799 -4.726532 -1.005854 -9.630094 6.154573 -1.294131 9.925113 1.723274 -0.461565 5.422377 3.103921 -10.757345 0.312271 -76.622466 -19.903680 36.901878 35.041437 -37.121283 -17.306289 -1.030525 0.767064 -23.781868 30.890713 -15.954854 -10.253810 -7.125000 0.000000 0.000000 2.369055 10.092546 -1.918496 -3.357272 8.652693 1.075025 92.800130 -26.853491 -57.556697 -1.842687 5.359270 -1.145159 3.252893 -0.601681 60.856482 -18.282156 -30.775822 11.448052 7.125000 0.000000 0.000000 15.093720 -64.106874 -7.067762
8.569464 17.600517 -32.407111 3.373409 10.710080 7.541148 -5.831171 2.697447 8.299403 -12.347519 -2.789236 7.565354 -3.373767 3.365058 12.687984 1.607553 5.948800 32.685157 0.385552 3.295740 9.184052 2.660065 4.383058 -6.337657 7.195288 2.066287 -33.140480 3.325762 -9.570020 18.128317 -1.964352 -8.611065 33.083523 -0.044831 1.341169 -3.688510 -1.369362 -3.150397 2.417380 1.568285 -3.704350 -4.216779 2.555179 -2.953924 -2.709461 -4.724002 -0.997084 -9.813730 6.078627 -1.264824 9.850814 1.680691 -0.451941 5.423195 3.138018 -10.720834 0.306927 -76.827591 -19.533468 36.657115 35.490094 -37.444289 -17.660942 -1.041772 0.705512 -24.157904 30.904581 -15.683984 -10.082849 -7.125000 0.000000 0.000000 2.438825 10.458477 -1.956894 -3.353061 8.644475 1.047355 92.729580 -27.026361 -54.506323 -1.742982 5.710451 -1.173330 3.308612 -0.423265 58.093430 -18.135618 -31.049033 11.451421 7.125000 0.000000 0.000000 15.533366 -64.363723 -7.371670
8.576019 17.609112 -32.259417 3.161730 10.452548 7.546448 -5.891808 2.559999 8.183169 -12.189460 -2.468901 6.751945 -3.063041 4.107353 14.391091 1.388425 6.973190 33.413935 0.072221 1.688243 4.645849 2.707363 4.404990 -6.294700 7.367011 2.368942 -33.086435 3.256825 -9.755482 18.617490 -1.920292 -8.579330 33.033898 -0.028989 1.085087 -2.983087 -1.030711 -3.079429 2.364038 1.577939 -3.608176 -4.207216 2.483851 -2.896808 -2.627237 -4.722247 -0.961726 -9.973858 6.018115 -1.202008 9.797890 1.648398 -0.424884 5.431414 3.172903 -10.685626 0.299830 -77.071037 -19.151975 36.395150 35.886351 -37.736482 -17.980644 -1.046370 0.654479 -24.517080 30.889684 -15.536176 -9.972016 -7.125000 0.000000 0.000000 2.466380 10.681896 -1.968321 -3.352097 8.639347 1.015919 92.684688 -27.228159 -51.248065 -1.706768 6.179219 -1.214748 3.353384 -0.219319 55.073176 -17.914070 -31.343319 11.410697 7.125000 0.000000 0.000000 16.099876 -64.620867 -7.744118
8.581781 17.613251 -32.114762 2.994521 10.171638 7.526335 -5.947443 2.438765 8.034736 -12.067078 -2.161983 5.989687 -2.664139 4.895690 16.088426 1.001345 8.646359 34.215802 0.040126 1.200913 3.303092 2.757116 4.409453 -6.229136 7.489240 2.749994 -32.964852 3.183154 -9.935325 19.107152 -1.877383 -8.520105 32.917899 -0.019029 0.863941 -2.374597 -0.755102 -3.003927 2.358796 1.588112 -3.508665 -4.197030 2.440202 -2.835888 -2.567788 -4.721742 -0.883464 -10.096052 5.982508 -1.085121 9.779460 1.632712 -0.369693 5.451575 3.209057 -10.652523 0.289904 -77.376316 -18.752281 36.105430 36.198053 -37.978953 -18.243950 -1.040239 0.620420 -24.849051 30.828371 -15.586945 -9.958207 -7.125000 0.000000 0.000000 2.425818 10.675352 -1.936226 -3.356373 8.639207 0.978410 92.681200 -27.476636 -47.654359 -1.773007 6.837731 -1.277542 3.380493 0.025826 51.637895 -17.571486 -31.671613 11.298824 7.125000 0.000000 0.000000 16.871098 -64.878487 -8.227167
8.587576 17.616029 -31.970685 2.850519 9.888074 7.470103 -5.985276 2.326122 7.870720 -11.977739 -1.871438 5.290065 -2.212966 5.699890 17.803780 0.545766 10.522898 34.894367 0.060752 1.260827 3.474019 2.804872 4.403228 -6.147072 7.621240 3.091215 -32.826281 3.107073 -10.110160 19.607370 -1.848466 -8.424029 32.804734 -0.010518 0.571506 -1.570474 -0.502099 -2.922837 2.403909 1.593514 -3.400447 -4.187163 2.381785 -2.769051 -2.537558 -4.709083 -0.811840 -10.184551 5.951877 -0.981721 9.762709 1.617846 -0.320390 5.467064 3.241211 -10.623289 0.278098 -77.675847 -18.310856 35.847531 36.506471 -38.222450 -18.505853 -1.028296 0.591263 -25.174601 30.740955 -15.724992 -9.982062 -7.125000 0.000000 0.000000 2.352115 10.573049 -1.881682 -3.360080 8.645943 0.950459 92.673054 -27.575223 -44.914922 -1.839086 7.349722 -1.329751 3.397558 0.206112 49.082618 -17.289184 -31.910548 11.196529 7.125000 0.000000 0.000000 17.469311 -65.054742 -8.593221
8.593450 17.615694 -31.827932 2.759559 9.598442 7.331314 -5.982416 2.233118 7.671087 -11.963931 -1.618316 4.733609 -1.642314 6.540346 19.560325 -0.066384 12.864285 35.291098 0.201879 2.571586 7.104795 2.848062 4.372574 -6.027294 7.775572 3.341395 -32.648879 3.025480 -10.273544 20.131714 -1.851532 -8.243724 32.698049 -0.005322 0.116125 -0.319187 -0.300767 -2.828973 2.564117 1.588016 -3.272325 -4.178030 2.289614 -2.688688 -2.574116 -4.668642 -0.755387 -10.196035 5.932621 -0.909147 9.749796 1.604854 -0.284543 5.471876 3.264225 -10.602902 0.261996 -77.962241 -17.774050 35.662366 36.807381 -38.468295 -18.764552 -1.003069 0.573311 -25.485475 30.593876 -16.062531 -10.092010 -7.125000 0.000000 0.000000 2.202663 10.251867 -1.775825 -3.362486 8.668399 0.944355 92.654263 -27.331203 -44.128101 -1.904801 7.526811 -1.357770 3.391663 0.238153 48.538780 -17.144670 -31.945233 11.116126 7.125000 0.000000 0.000000 17.672077 -65.045022 -8.691861
8.600170 17.616686 -31.686013 2.659405 9.301119 7.193386 -5.968020 2.135528 7.472442 -11.953209 -1.333751 4.167579 -1.071504 7.351194 21.307312 -0.586205 14.957747 35.736938 0.300472 3.519433 9.728892 2.884415 4.343862 -5.907252 7.962664 3.551865 -32.492269 2.943741 -10.438593 20.675336 -1.866932 -8.014631 32.562195 -0.004226 -0.328605 0.902999 -0.078321 -2.730945 2.730380 1.580602 -3.137279 -4.169218 2.184011 -2.604631 -2.612231 -4.638772 -0.719502 -10.219747 5.905668 -0.860822 9.733110 1.590840 -0.261761 5.480115 3.284656 -10.584693 0.245204 -78.235739 -17.228182 35.500850 37.124111 -38.721731 -19.035149 -0.982438 0.552841 -25.785956 30.495106 -16.353455 -10.196170 -7.125000 0.000000 0.000000 2.094354 9.974461 -1.701134 -3.363372 8.694612 0.942402 92.605354 -26.981169 -43.678553 -1.941605 7.602792 -1.379021 3.392349 0.243513 48.353943 -17.070023 -32.021435 11.093890 7.125000 0.000000 0.000000 17.823604 -65.093830 -8.788576
8.609792 17.622224 -31.546951 2.527776 8.977470 7.058409 -5.914136 2.022246 7.277174 -11.953054 -0.941551 3.568777 -0.500150 8.060692 23.021584 -0.789978 16.202541 36.350884 0.253461 3.225005 8.907051 2.897362 4.321800 -5.786310 8.261892 3.626402 -32.406833 2.861501 -10.609337 21.284952 -1.924554 -7.618538 32.326489 -0.017170 -0.736879 2.025572 0.216396 -2.618658 2.917370 1.566633 -2.978535 -4.161508 2.032426 -2.507923 -2.655673 -4.645083 -0.754017 -10.285318 5.852370 -0.895500 9.703512 1.573326 -0.283702 5.500083 3.296243 -10.573939 0.226052 -78.465096 -16.651299 35.420286 37.494989 -39.001156 -19.346469 -0.977536 0.523751 -26.050859 30.561706 -16.484806 -10.280520 -7.125000 0.000000 0.000000 2.126881 9.846902 -1.733132 -3.359049 8.733688 0.954655 92.453347 -26.268245 -44.383517 -1.879445 7.332675 -1.377106 3.415561 0.157545 49.397994 -17.234538 -32.239751 11.270769 7.125000 0.000000 0.000000 17.799738 -65.342980 -8.878699
8.619546 17.628216 -31.408261 2.406099 8.650976 6.922166 -5.855844 1.905851 7.079746 -11.973717 -0.550343 2.978072 0.072544 8.760103 24.735497 -0.970109 17.377112 36.957471 0.200447 2.843826 7.846400 2.906402 4.301139 -5.665909 8.554629 3.695389 -32.320904 2.781200 -10.775700 21.890710 -1.995235 -7.190809 32.095593 -0.031372 -1.131490 3.110867 0.496288 -2.505205 3.108131 1.553270 -2.818593 -4.152329 1.893686 -2.410571 -2.692004 -4.664844 -0.789938 -10.357027 5.800116 -0.929513 9.673338 1.559019 -0.305843 5.520415 3.307524 -10.562628 0.207496 -78.701308 -16.091525 35.338935 37.851171 -39.269181 -19.643963 -0.974051 0.492810 -26.314902 30.613686 -16.568369 -10.332434 -7.125000 0.000000 0.000000 2.157737 9.777286 -1.761225 -3.354402 8.771756 0.965670 92.296260 -25.580549 -44.928855 -1.818701 7.089663 -1.377113 3.439650 0.081301 50.270006 -17.413994 -32.452604 11.456674 7.125000 0.000000 0.000000 17.751994 -65.592053 -8.956005
8.630062 17.636831 -31.271717 2.341787 8.308086 6.778635 -5.772144 1.771521 6.869863 -12.114387 -0.164857 2.434044 0.652958 9.401367 26.447336 -1.013959 18.146865 37.521637 0.112826 1.962560 5.409073 2.892922 4.288547 -5.548627 8.809953 3.732381 -32.232136 2.712083 -10.916816 22.474231 -2.141206 -6.580707 31.892432 -0.052833 -1.447331 3.981258 0.690722 -2.385023 3.320631 1.543398 -2.651745 -4.134684 1.828995 -2.309501 -2.687343 -4.762137 -0.833955 -10.464121 5.753883 -0.959693 9.639848 1.563205 -0.329131 5.542837 3.317039 -10.548104 0.192372 -78.977045 -15.630382 35.253047 38.122632 -39.471493 -19.861747 -0.978739 0.451203 -26.573981 30.581385 -16.376446 -10.197369 -7.125000 0.000000 0.000000 2.178956 10.041690 -1.766807 -3.347877 8.804014 0.969549 92.109885 -25.038284 -44.553999 -1.766119 7.002905 -1.388203 3.468799 0.061113 50.150267 -17.679585 -32.633958 11.694613 7.125000 0.000000 0.000000 17.566598 -65.840674 -8.959421
8.640633 17.645546 -31.135184 2.286372 7.970565 6.633977 -5.687733 1.636987 6.656867 -12.266434 0.209871 1.895443 1.242545 10.044704 28.161273 -1.082971 18.983435 38.039661 0.031641 1.148371 3.157193 2.880114 4.275055 -5.429964 9.053555 3.771292 -32.135369 2.643622 -11.053867 23.048142 -2.287689 -5.973698 31.695190 -0.073747 -1.751550 4.819682 0.874066 -2.265597 3.535183 1.533124 -2.486231 -4.116608 1.764042 -2.208811 -2.683949 -4.852875 -0.874590 -10.561785 5.708928 -0.987442 9.601902 1.566126 -0.350810 5.558826 3.326661 -10.533427 0.178530 -79.250562 -15.169086 35.174278 38.389029 -39.670928 -20.074714 -0.983099 0.409359 -26.836061 30.538280 -16.179452 -10.055151 -7.125000 0.000000 0.000000 2.193599 10.314167 -1.766782 -3.342322 8.835884 0.972598 91.936245 -24.518323 -44.058265 -1.720695 6.946341 -1.401177 3.495868 0.049269 49.906954 -17.926102 -32.799543 11.915126 7.125000 0.000000 0.000000 17.389688 -66.068455 -8.958864
